<svg xmlns="http://www.w3.org/2000/svg" xmlns:xlink="http://www.w3.org/1999/xlink" width="200" zoomAndPan="magnify" viewBox="0 0 150 74.999997" height="100" preserveAspectRatio="xMidYMid meet" version="1.0"><defs><g/><clipPath id="377147a764"><path d="M 2 9 L 46 9 L 46 60 L 2 60 Z M 2 9 " clip-rule="nonzero"/></clipPath><clipPath id="665043ef65"><path d="M 7.082031 22.285156 C 7.082031 17.886719 10.648438 14.324219 15.042969 14.324219 L 33.238281 14.324219 C 37.636719 14.324219 41.199219 17.886719 41.199219 22.285156 L 41.199219 40.480469 C 41.199219 44.265625 38.554688 47.4375 35.011719 48.242188 C 33.976562 48.476562 33.238281 49.398438 33.238281 50.460938 L 33.238281 52.988281 L 27.78125 48.894531 C 27.386719 48.601562 26.910156 48.441406 26.417969 48.441406 L 15.042969 48.441406 C 10.648438 48.441406 7.082031 44.875 7.082031 40.480469 Z M 15.042969 9.773438 C 8.136719 9.773438 2.535156 15.375 2.535156 22.285156 L 2.535156 40.480469 C 2.535156 47.386719 8.136719 52.988281 15.042969 52.988281 L 25.660156 52.988281 L 34.148438 59.359375 C 34.839844 59.875 35.761719 59.957031 36.53125 59.570312 C 37.300781 59.1875 37.789062 58.398438 37.789062 57.539062 L 37.789062 52.136719 C 42.449219 50.316406 45.75 45.785156 45.75 40.480469 L 45.75 22.285156 C 45.75 15.375 40.148438 9.773438 33.238281 9.773438 Z M 17.320312 15.460938 C 14.179688 15.460938 11.632812 18.007812 11.632812 21.148438 C 11.632812 24.285156 14.179688 26.832031 17.320312 26.832031 C 14.179688 26.832031 11.632812 29.378906 11.632812 32.519531 L 11.632812 41.617188 C 11.632812 44.757812 14.179688 47.304688 17.320312 47.304688 C 20.460938 47.304688 23.003906 44.757812 23.003906 41.617188 L 23.003906 32.519531 C 23.003906 29.378906 20.460938 26.832031 17.320312 26.832031 C 20.460938 26.832031 23.003906 24.285156 23.003906 21.148438 C 23.003906 18.007812 20.460938 15.460938 17.320312 15.460938 Z M 16.179688 21.148438 C 16.179688 20.519531 16.691406 20.007812 17.320312 20.007812 C 17.945312 20.007812 18.457031 20.519531 18.457031 21.148438 C 18.457031 21.773438 17.945312 22.285156 17.320312 22.285156 C 16.691406 22.285156 16.179688 21.773438 16.179688 21.148438 Z M 17.320312 31.382812 C 16.691406 31.382812 16.179688 31.890625 16.179688 32.519531 L 16.179688 41.617188 C 16.179688 42.246094 16.691406 42.753906 17.320312 42.753906 C 17.945312 42.753906 18.457031 42.246094 18.457031 41.617188 L 18.457031 32.519531 C 18.457031 31.890625 17.945312 31.382812 17.320312 31.382812 Z M 25.277344 32.519531 C 25.277344 29.378906 27.824219 26.832031 30.964844 26.832031 C 34.105469 26.832031 36.652344 29.378906 36.652344 32.519531 L 36.652344 41.617188 C 36.652344 44.757812 34.105469 47.304688 30.964844 47.304688 C 27.824219 47.304688 25.277344 44.757812 25.277344 41.617188 Z M 30.964844 31.382812 C 30.335938 31.382812 29.828125 31.890625 29.828125 32.519531 L 29.828125 41.617188 C 29.828125 42.246094 30.335938 42.753906 30.964844 42.753906 C 31.59375 42.753906 32.101562 42.246094 32.101562 41.617188 L 32.101562 32.519531 C 32.101562 31.890625 31.59375 31.382812 30.964844 31.382812 Z M 25.277344 21.148438 C 25.277344 18.007812 27.824219 15.460938 30.964844 15.460938 C 34.105469 15.460938 36.652344 18.007812 36.652344 21.148438 C 36.652344 24.285156 34.105469 26.832031 30.964844 26.832031 C 27.824219 26.832031 25.277344 24.285156 25.277344 21.148438 Z M 30.964844 20.007812 C 30.335938 20.007812 29.828125 20.519531 29.828125 21.148438 C 29.828125 21.773438 30.335938 22.285156 30.964844 22.285156 C 31.59375 22.285156 32.101562 21.773438 32.101562 21.148438 C 32.101562 20.519531 31.59375 20.007812 30.964844 20.007812 Z M 30.964844 20.007812 " clip-rule="evenodd"/></clipPath></defs><g fill="#000000" fill-opacity="1"><g transform="translate(51.435913, 37.250876)"><g><path d="M 0.78125 -9.015625 C 0.78125 -10.097656 0.972656 -11.160156 1.359375 -12.203125 C 1.753906 -13.242188 2.328125 -14.191406 3.078125 -15.046875 C 3.828125 -15.910156 4.742188 -16.597656 5.828125 -17.109375 C 6.910156 -17.617188 8.144531 -17.875 9.53125 -17.875 C 11.164062 -17.875 12.578125 -17.515625 13.765625 -16.796875 C 14.960938 -16.078125 15.859375 -15.144531 16.453125 -14 L 13.796875 -12.171875 C 13.492188 -12.835938 13.097656 -13.363281 12.609375 -13.75 C 12.128906 -14.144531 11.613281 -14.421875 11.0625 -14.578125 C 10.507812 -14.734375 9.96875 -14.8125 9.4375 -14.8125 C 8.570312 -14.8125 7.816406 -14.632812 7.171875 -14.28125 C 6.523438 -13.9375 5.984375 -13.476562 5.546875 -12.90625 C 5.117188 -12.34375 4.800781 -11.710938 4.59375 -11.015625 C 4.382812 -10.316406 4.28125 -9.613281 4.28125 -8.90625 C 4.28125 -8.125 4.40625 -7.367188 4.65625 -6.640625 C 4.90625 -5.921875 5.257812 -5.28125 5.71875 -4.71875 C 6.175781 -4.15625 6.722656 -3.710938 7.359375 -3.390625 C 8.003906 -3.066406 8.710938 -2.90625 9.484375 -2.90625 C 10.035156 -2.90625 10.59375 -2.992188 11.15625 -3.171875 C 11.726562 -3.359375 12.253906 -3.648438 12.734375 -4.046875 C 13.222656 -4.453125 13.601562 -4.972656 13.875 -5.609375 L 16.703125 -3.984375 C 16.347656 -3.097656 15.773438 -2.34375 14.984375 -1.71875 C 14.191406 -1.101562 13.300781 -0.632812 12.3125 -0.3125 C 11.332031 0 10.359375 0.15625 9.390625 0.15625 C 8.117188 0.15625 6.957031 -0.101562 5.90625 -0.625 C 4.851562 -1.15625 3.945312 -1.859375 3.1875 -2.734375 C 2.425781 -3.617188 1.832031 -4.601562 1.40625 -5.6875 C 0.988281 -6.78125 0.78125 -7.890625 0.78125 -9.015625 Z M 0.78125 -9.015625 "/></g></g></g><g fill="#000000" fill-opacity="1"><g transform="translate(67.299983, 37.250876)"><g><path d="M 7.578125 0.25 C 6.515625 0.25 5.554688 0.0703125 4.703125 -0.28125 C 3.847656 -0.644531 3.125 -1.144531 2.53125 -1.78125 C 1.945312 -2.414062 1.492188 -3.140625 1.171875 -3.953125 C 0.859375 -4.773438 0.703125 -5.632812 0.703125 -6.53125 C 0.703125 -7.445312 0.859375 -8.3125 1.171875 -9.125 C 1.492188 -9.945312 1.945312 -10.675781 2.53125 -11.3125 C 3.125 -11.945312 3.847656 -12.441406 4.703125 -12.796875 C 5.554688 -13.160156 6.515625 -13.34375 7.578125 -13.34375 C 8.648438 -13.34375 9.609375 -13.160156 10.453125 -12.796875 C 11.296875 -12.441406 12.015625 -11.945312 12.609375 -11.3125 C 13.210938 -10.675781 13.664062 -9.945312 13.96875 -9.125 C 14.28125 -8.3125 14.4375 -7.445312 14.4375 -6.53125 C 14.4375 -5.632812 14.28125 -4.773438 13.96875 -3.953125 C 13.664062 -3.140625 13.21875 -2.414062 12.625 -1.78125 C 12.03125 -1.144531 11.304688 -0.644531 10.453125 -0.28125 C 9.609375 0.0703125 8.648438 0.25 7.578125 0.25 Z M 4.15625 -6.53125 C 4.15625 -5.757812 4.304688 -5.078125 4.609375 -4.484375 C 4.910156 -3.898438 5.316406 -3.441406 5.828125 -3.109375 C 6.347656 -2.773438 6.929688 -2.609375 7.578125 -2.609375 C 8.210938 -2.609375 8.789062 -2.773438 9.3125 -3.109375 C 9.832031 -3.453125 10.242188 -3.921875 10.546875 -4.515625 C 10.859375 -5.109375 11.015625 -5.789062 11.015625 -6.5625 C 11.015625 -7.3125 10.859375 -7.984375 10.546875 -8.578125 C 10.242188 -9.179688 9.832031 -9.648438 9.3125 -9.984375 C 8.789062 -10.316406 8.210938 -10.484375 7.578125 -10.484375 C 6.929688 -10.484375 6.347656 -10.3125 5.828125 -9.96875 C 5.316406 -9.632812 4.910156 -9.171875 4.609375 -8.578125 C 4.304688 -7.984375 4.15625 -7.300781 4.15625 -6.53125 Z M 4.15625 -6.53125 "/></g></g></g><g fill="#000000" fill-opacity="1"><g transform="translate(81.162194, 37.250876)"><g><path d="M 1.5 -18.265625 L 4.859375 -18.265625 L 4.859375 -4.203125 C 4.859375 -3.597656 4.957031 -3.191406 5.15625 -2.984375 C 5.351562 -2.773438 5.628906 -2.671875 5.984375 -2.671875 C 6.253906 -2.671875 6.53125 -2.703125 6.8125 -2.765625 C 7.09375 -2.835938 7.34375 -2.925781 7.5625 -3.03125 L 8.015625 -0.46875 C 7.554688 -0.257812 7.023438 -0.0976562 6.421875 0.015625 C 5.828125 0.140625 5.289062 0.203125 4.8125 0.203125 C 3.757812 0.203125 2.941406 -0.078125 2.359375 -0.640625 C 1.785156 -1.203125 1.5 -2 1.5 -3.03125 Z M 1.5 -18.265625 "/></g></g></g><g fill="#000000" fill-opacity="1"><g transform="translate(87.792665, 37.250876)"><g><path d="M 1.5 -18.265625 L 4.859375 -18.265625 L 4.859375 -4.203125 C 4.859375 -3.597656 4.957031 -3.191406 5.15625 -2.984375 C 5.351562 -2.773438 5.628906 -2.671875 5.984375 -2.671875 C 6.253906 -2.671875 6.53125 -2.703125 6.8125 -2.765625 C 7.09375 -2.835938 7.34375 -2.925781 7.5625 -3.03125 L 8.015625 -0.46875 C 7.554688 -0.257812 7.023438 -0.0976562 6.421875 0.015625 C 5.828125 0.140625 5.289062 0.203125 4.8125 0.203125 C 3.757812 0.203125 2.941406 -0.078125 2.359375 -0.640625 C 1.785156 -1.203125 1.5 -2 1.5 -3.03125 Z M 1.5 -18.265625 "/></g></g></g><g clip-path="url(#377147a764)"><g clip-path="url(#665043ef65)"><path fill="#5e2bff" d="M 2.535156 9.773438 L 2.535156 59.957031 L 45.75 59.957031 L 45.75 9.773438 Z M 2.535156 9.773438 " fill-opacity="1" fill-rule="nonzero"/></g></g><g fill="#000000" fill-opacity="1"><g transform="translate(95.35794, 37.250876)"><g><path d="M 0.625 -3.875 C 0.625 -4.726562 0.859375 -5.472656 1.328125 -6.109375 C 1.804688 -6.753906 2.472656 -7.253906 3.328125 -7.609375 C 4.179688 -7.960938 5.160156 -8.140625 6.265625 -8.140625 C 6.804688 -8.140625 7.359375 -8.097656 7.921875 -8.015625 C 8.492188 -7.929688 8.988281 -7.796875 9.40625 -7.609375 L 9.40625 -8.3125 C 9.40625 -9.144531 9.160156 -9.785156 8.671875 -10.234375 C 8.179688 -10.679688 7.453125 -10.90625 6.484375 -10.90625 C 5.765625 -10.90625 5.078125 -10.78125 4.421875 -10.53125 C 3.773438 -10.28125 3.09375 -9.914062 2.375 -9.4375 L 1.296875 -11.640625 C 2.171875 -12.203125 3.0625 -12.625 3.96875 -12.90625 C 4.875 -13.195312 5.828125 -13.34375 6.828125 -13.34375 C 8.703125 -13.34375 10.160156 -12.875 11.203125 -11.9375 C 12.242188 -11 12.765625 -9.664062 12.765625 -7.9375 L 12.765625 -3.75 C 12.765625 -3.40625 12.828125 -3.15625 12.953125 -3 C 13.078125 -2.851562 13.28125 -2.765625 13.5625 -2.734375 L 13.5625 0 C 13.257812 0.0507812 12.988281 0.09375 12.75 0.125 C 12.507812 0.15625 12.304688 0.171875 12.140625 0.171875 C 11.472656 0.171875 10.96875 0.0234375 10.625 -0.265625 C 10.28125 -0.566406 10.066406 -0.9375 9.984375 -1.375 L 9.90625 -2.046875 C 9.34375 -1.316406 8.632812 -0.75 7.78125 -0.34375 C 6.9375 0.0507812 6.070312 0.25 5.1875 0.25 C 4.3125 0.25 3.523438 0.0703125 2.828125 -0.28125 C 2.140625 -0.644531 1.597656 -1.140625 1.203125 -1.765625 C 0.816406 -2.390625 0.625 -3.09375 0.625 -3.875 Z M 8.78125 -3.203125 C 8.96875 -3.398438 9.117188 -3.597656 9.234375 -3.796875 C 9.347656 -4.003906 9.40625 -4.191406 9.40625 -4.359375 L 9.40625 -5.6875 C 9.007812 -5.851562 8.578125 -5.976562 8.109375 -6.0625 C 7.640625 -6.15625 7.195312 -6.203125 6.78125 -6.203125 C 5.914062 -6.203125 5.203125 -6.015625 4.640625 -5.640625 C 4.085938 -5.265625 3.8125 -4.769531 3.8125 -4.15625 C 3.8125 -3.820312 3.898438 -3.503906 4.078125 -3.203125 C 4.265625 -2.898438 4.53125 -2.65625 4.875 -2.46875 C 5.226562 -2.289062 5.644531 -2.203125 6.125 -2.203125 C 6.632812 -2.203125 7.128906 -2.296875 7.609375 -2.484375 C 8.085938 -2.679688 8.476562 -2.921875 8.78125 -3.203125 Z M 8.78125 -3.203125 "/></g></g></g><g fill="#000000" fill-opacity="1"><g transform="translate(108.419401, 37.250876)"><g><path d="M 8.984375 0.25 C 7.984375 0.25 7.085938 0.0234375 6.296875 -0.421875 C 5.515625 -0.867188 4.898438 -1.488281 4.453125 -2.28125 L 4.453125 0 L 1.53125 0 L 1.53125 -18.265625 L 4.875 -18.265625 L 4.875 -10.8125 C 5.34375 -11.59375 5.957031 -12.207031 6.71875 -12.65625 C 7.476562 -13.113281 8.367188 -13.34375 9.390625 -13.34375 C 10.234375 -13.34375 11.003906 -13.160156 11.703125 -12.796875 C 12.410156 -12.441406 13.019531 -11.945312 13.53125 -11.3125 C 14.039062 -10.675781 14.429688 -9.945312 14.703125 -9.125 C 14.984375 -8.3125 15.125 -7.441406 15.125 -6.515625 C 15.125 -5.578125 14.96875 -4.695312 14.65625 -3.875 C 14.34375 -3.0625 13.910156 -2.34375 13.359375 -1.71875 C 12.816406 -1.09375 12.171875 -0.609375 11.421875 -0.265625 C 10.679688 0.078125 9.867188 0.25 8.984375 0.25 Z M 8.0625 -2.609375 C 8.59375 -2.609375 9.078125 -2.710938 9.515625 -2.921875 C 9.960938 -3.128906 10.347656 -3.40625 10.671875 -3.75 C 10.992188 -4.101562 11.242188 -4.515625 11.421875 -4.984375 C 11.597656 -5.460938 11.6875 -5.960938 11.6875 -6.484375 C 11.6875 -7.203125 11.539062 -7.863281 11.25 -8.46875 C 10.957031 -9.082031 10.554688 -9.570312 10.046875 -9.9375 C 9.535156 -10.300781 8.941406 -10.484375 8.265625 -10.484375 C 7.773438 -10.484375 7.304688 -10.367188 6.859375 -10.140625 C 6.421875 -9.921875 6.03125 -9.617188 5.6875 -9.234375 C 5.351562 -8.847656 5.082031 -8.414062 4.875 -7.9375 L 4.875 -4.8125 C 4.976562 -4.476562 5.140625 -4.175781 5.359375 -3.90625 C 5.585938 -3.632812 5.851562 -3.398438 6.15625 -3.203125 C 6.457031 -3.015625 6.769531 -2.867188 7.09375 -2.765625 C 7.414062 -2.660156 7.738281 -2.609375 8.0625 -2.609375 Z M 8.0625 -2.609375 "/></g></g></g><g fill="#5e2bff" fill-opacity="1"><g transform="translate(122.986996, 37.250876)"><g><path d="M 6.359375 0.25 C 5.242188 0.25 4.175781 0.0664062 3.15625 -0.296875 C 2.132812 -0.660156 1.257812 -1.203125 0.53125 -1.921875 L 1.734375 -4.109375 C 2.515625 -3.472656 3.285156 -3.003906 4.046875 -2.703125 C 4.804688 -2.398438 5.535156 -2.25 6.234375 -2.25 C 6.878906 -2.25 7.398438 -2.363281 7.796875 -2.59375 C 8.191406 -2.832031 8.390625 -3.1875 8.390625 -3.65625 C 8.390625 -3.96875 8.28125 -4.210938 8.0625 -4.390625 C 7.84375 -4.566406 7.53125 -4.722656 7.125 -4.859375 C 6.71875 -4.992188 6.21875 -5.144531 5.625 -5.3125 C 4.664062 -5.625 3.859375 -5.929688 3.203125 -6.234375 C 2.554688 -6.535156 2.066406 -6.914062 1.734375 -7.375 C 1.410156 -7.832031 1.25 -8.421875 1.25 -9.140625 C 1.25 -10.003906 1.46875 -10.75 1.90625 -11.375 C 2.351562 -12 2.972656 -12.484375 3.765625 -12.828125 C 4.554688 -13.179688 5.488281 -13.359375 6.5625 -13.359375 C 7.488281 -13.359375 8.367188 -13.210938 9.203125 -12.921875 C 10.046875 -12.628906 10.804688 -12.160156 11.484375 -11.515625 L 10.140625 -9.390625 C 9.472656 -9.898438 8.835938 -10.273438 8.234375 -10.515625 C 7.628906 -10.765625 7.019531 -10.890625 6.40625 -10.890625 C 6.050781 -10.890625 5.71875 -10.847656 5.40625 -10.765625 C 5.101562 -10.679688 4.851562 -10.539062 4.65625 -10.34375 C 4.46875 -10.15625 4.375 -9.882812 4.375 -9.53125 C 4.375 -9.21875 4.460938 -8.972656 4.640625 -8.796875 C 4.816406 -8.617188 5.082031 -8.460938 5.4375 -8.328125 C 5.800781 -8.203125 6.242188 -8.054688 6.765625 -7.890625 C 7.804688 -7.585938 8.691406 -7.273438 9.421875 -6.953125 C 10.148438 -6.640625 10.695312 -6.253906 11.0625 -5.796875 C 11.425781 -5.335938 11.609375 -4.707031 11.609375 -3.90625 C 11.609375 -2.601562 11.132812 -1.582031 10.1875 -0.84375 C 9.238281 -0.113281 7.960938 0.25 6.359375 0.25 Z M 6.359375 0.25 "/></g></g></g><g fill="#5e2bff" fill-opacity="1"><g transform="translate(134.04659, 37.250876)"><g><path d="M 1.796875 2.546875 C 2.097656 2.617188 2.378906 2.675781 2.640625 2.71875 C 2.898438 2.769531 3.117188 2.796875 3.296875 2.796875 C 3.617188 2.796875 3.882812 2.71875 4.09375 2.5625 C 4.300781 2.40625 4.503906 2.117188 4.703125 1.703125 C 4.898438 1.296875 5.109375 0.726562 5.328125 0 L 0.15625 -13.109375 L 3.625 -13.109375 L 7.15625 -3.421875 L 10.265625 -13.109375 L 13.46875 -13.109375 L 7.953125 2.609375 C 7.753906 3.191406 7.453125 3.71875 7.046875 4.1875 C 6.640625 4.664062 6.128906 5.039062 5.515625 5.3125 C 4.910156 5.59375 4.234375 5.734375 3.484375 5.734375 C 3.210938 5.734375 2.941406 5.710938 2.671875 5.671875 C 2.410156 5.628906 2.117188 5.554688 1.796875 5.453125 Z M 1.796875 2.546875 "/></g></g></g><g fill="#000000" fill-opacity="1"><g transform="translate(51.435913, 49.660179)"><g><path d="M 1.84375 -4.609375 L 2.53125 -4.609375 L 4.328125 0 L 3.5625 0 L 3.078125 -1.25 L 1.296875 -1.25 L 0.8125 0 L 0.046875 0 Z M 2.9375 -1.796875 L 2.1875 -3.8125 L 1.421875 -1.796875 Z M 2.9375 -1.796875 "/></g></g></g><g fill="#000000" fill-opacity="1"><g transform="translate(57.35052, 49.660179)"><g><path d="M 0.515625 0 L 0.515625 -4.609375 L 2.15625 -4.609375 C 2.65625 -4.609375 3.066406 -4.503906 3.390625 -4.296875 C 3.722656 -4.085938 3.972656 -3.804688 4.140625 -3.453125 C 4.304688 -3.109375 4.390625 -2.726562 4.390625 -2.3125 C 4.390625 -1.84375 4.296875 -1.4375 4.109375 -1.09375 C 3.929688 -0.75 3.671875 -0.476562 3.328125 -0.28125 C 2.992188 -0.09375 2.601562 0 2.15625 0 Z M 3.65625 -2.3125 C 3.65625 -2.632812 3.59375 -2.921875 3.46875 -3.171875 C 3.351562 -3.421875 3.179688 -3.613281 2.953125 -3.75 C 2.734375 -3.894531 2.46875 -3.96875 2.15625 -3.96875 L 1.25 -3.96875 L 1.25 -0.640625 L 2.15625 -0.640625 C 2.476562 -0.640625 2.75 -0.710938 2.96875 -0.859375 C 3.195312 -1.003906 3.367188 -1.203125 3.484375 -1.453125 C 3.597656 -1.703125 3.65625 -1.988281 3.65625 -2.3125 Z M 3.65625 -2.3125 "/></g></g></g><g fill="#000000" fill-opacity="1"><g transform="translate(63.531026, 49.660179)"><g><path d="M 4.390625 0 L 4.390625 -3.28125 L 3.03125 -0.796875 L 2.609375 -0.796875 L 1.25 -3.28125 L 1.25 0 L 0.515625 0 L 0.515625 -4.609375 L 1.296875 -4.609375 L 2.828125 -1.796875 L 4.34375 -4.609375 L 5.125 -4.609375 L 5.125 0 Z M 4.390625 0 "/></g></g></g><g fill="#000000" fill-opacity="1"><g transform="translate(70.710277, 49.660179)"><g><path d="M 0.515625 0 L 0.515625 -4.609375 L 1.25 -4.609375 L 1.25 0 Z M 0.515625 0 "/></g></g></g><g fill="#000000" fill-opacity="1"><g transform="translate(74.0113, 49.660179)"><g><path d="M 1.25 -3.25 L 1.25 0 L 0.515625 0 L 0.515625 -4.609375 L 1.109375 -4.609375 L 3.71875 -1.28125 L 3.71875 -4.59375 L 4.453125 -4.59375 L 4.453125 0 L 3.8125 0 Z M 1.25 -3.25 "/></g></g></g><g fill="#000000" fill-opacity="1"><g transform="translate(80.522564, 49.660179)"><g/></g></g><g fill="#000000" fill-opacity="1"><g transform="translate(83.661453, 49.660179)"><g><path d="M 0.515625 0 L 0.515625 -4.609375 L 2.15625 -4.609375 C 2.65625 -4.609375 3.066406 -4.503906 3.390625 -4.296875 C 3.722656 -4.085938 3.972656 -3.804688 4.140625 -3.453125 C 4.304688 -3.109375 4.390625 -2.726562 4.390625 -2.3125 C 4.390625 -1.84375 4.296875 -1.4375 4.109375 -1.09375 C 3.929688 -0.75 3.671875 -0.476562 3.328125 -0.28125 C 2.992188 -0.09375 2.601562 0 2.15625 0 Z M 3.65625 -2.3125 C 3.65625 -2.632812 3.59375 -2.921875 3.46875 -3.171875 C 3.351562 -3.421875 3.179688 -3.613281 2.953125 -3.75 C 2.734375 -3.894531 2.46875 -3.96875 2.15625 -3.96875 L 1.25 -3.96875 L 1.25 -0.640625 L 2.15625 -0.640625 C 2.476562 -0.640625 2.75 -0.710938 2.96875 -0.859375 C 3.195312 -1.003906 3.367188 -1.203125 3.484375 -1.453125 C 3.597656 -1.703125 3.65625 -1.988281 3.65625 -2.3125 Z M 3.65625 -2.3125 "/></g></g></g><g fill="#000000" fill-opacity="1"><g transform="translate(89.84196, 49.660179)"><g><path d="M 1.84375 -4.609375 L 2.53125 -4.609375 L 4.328125 0 L 3.5625 0 L 3.078125 -1.25 L 1.296875 -1.25 L 0.8125 0 L 0.046875 0 Z M 2.9375 -1.796875 L 2.1875 -3.8125 L 1.421875 -1.796875 Z M 2.9375 -1.796875 "/></g></g></g><g fill="#000000" fill-opacity="1"><g transform="translate(95.756568, 49.660179)"><g><path d="M 3.234375 -3.515625 C 3.191406 -3.566406 3.128906 -3.617188 3.046875 -3.671875 C 2.972656 -3.722656 2.878906 -3.769531 2.765625 -3.8125 C 2.648438 -3.863281 2.523438 -3.90625 2.390625 -3.9375 C 2.265625 -3.96875 2.132812 -3.984375 2 -3.984375 C 1.695312 -3.984375 1.472656 -3.925781 1.328125 -3.8125 C 1.179688 -3.707031 1.109375 -3.554688 1.109375 -3.359375 C 1.109375 -3.203125 1.144531 -3.082031 1.21875 -3 C 1.300781 -2.914062 1.425781 -2.84375 1.59375 -2.78125 C 1.769531 -2.726562 1.984375 -2.671875 2.234375 -2.609375 C 2.546875 -2.535156 2.816406 -2.445312 3.046875 -2.34375 C 3.273438 -2.25 3.445312 -2.113281 3.5625 -1.9375 C 3.6875 -1.769531 3.75 -1.550781 3.75 -1.28125 C 3.75 -1.039062 3.707031 -0.835938 3.625 -0.671875 C 3.539062 -0.503906 3.421875 -0.367188 3.265625 -0.265625 C 3.109375 -0.160156 2.925781 -0.0820312 2.71875 -0.03125 C 2.519531 0.0195312 2.300781 0.046875 2.0625 0.046875 C 1.832031 0.046875 1.601562 0.0234375 1.375 -0.015625 C 1.15625 -0.0664062 0.941406 -0.140625 0.734375 -0.234375 C 0.523438 -0.328125 0.335938 -0.441406 0.171875 -0.578125 L 0.5 -1.203125 C 0.550781 -1.140625 0.628906 -1.078125 0.734375 -1.015625 C 0.847656 -0.953125 0.972656 -0.890625 1.109375 -0.828125 C 1.253906 -0.765625 1.410156 -0.710938 1.578125 -0.671875 C 1.742188 -0.628906 1.910156 -0.609375 2.078125 -0.609375 C 2.367188 -0.609375 2.585938 -0.660156 2.734375 -0.765625 C 2.890625 -0.867188 2.96875 -1.015625 2.96875 -1.203125 C 2.96875 -1.359375 2.914062 -1.484375 2.8125 -1.578125 C 2.71875 -1.671875 2.578125 -1.75 2.390625 -1.8125 C 2.203125 -1.875 1.976562 -1.9375 1.71875 -2 C 1.414062 -2.082031 1.160156 -2.171875 0.953125 -2.265625 C 0.742188 -2.367188 0.585938 -2.492188 0.484375 -2.640625 C 0.390625 -2.796875 0.34375 -2.992188 0.34375 -3.234375 C 0.34375 -3.535156 0.414062 -3.789062 0.5625 -4 C 0.707031 -4.207031 0.90625 -4.363281 1.15625 -4.46875 C 1.414062 -4.582031 1.703125 -4.640625 2.015625 -4.640625 C 2.222656 -4.640625 2.421875 -4.613281 2.609375 -4.5625 C 2.796875 -4.519531 2.96875 -4.457031 3.125 -4.375 C 3.289062 -4.300781 3.441406 -4.21875 3.578125 -4.125 Z M 3.234375 -3.515625 "/></g></g></g><g fill="#000000" fill-opacity="1"><g transform="translate(101.256115, 49.660179)"><g><path d="M 4.296875 -4.609375 L 4.296875 0 L 3.5625 0 L 3.5625 -2.03125 L 1.25 -2.03125 L 1.25 0 L 0.515625 0 L 0.515625 -4.609375 L 1.25 -4.609375 L 1.25 -2.671875 L 3.5625 -2.671875 L 3.5625 -4.609375 Z M 4.296875 -4.609375 "/></g></g></g><g fill="#000000" fill-opacity="1"><g transform="translate(107.611728, 49.660179)"><g><path d="M 4.140625 -1.1875 C 4.140625 -0.9375 4.070312 -0.722656 3.9375 -0.546875 C 3.8125 -0.367188 3.640625 -0.234375 3.421875 -0.140625 C 3.210938 -0.046875 2.976562 0 2.71875 0 L 0.515625 0 L 0.515625 -4.609375 L 2.890625 -4.609375 C 3.109375 -4.609375 3.296875 -4.550781 3.453125 -4.4375 C 3.609375 -4.320312 3.726562 -4.171875 3.8125 -3.984375 C 3.894531 -3.804688 3.9375 -3.625 3.9375 -3.4375 C 3.9375 -3.207031 3.878906 -2.992188 3.765625 -2.796875 C 3.648438 -2.597656 3.488281 -2.453125 3.28125 -2.359375 C 3.539062 -2.285156 3.75 -2.144531 3.90625 -1.9375 C 4.0625 -1.726562 4.140625 -1.476562 4.140625 -1.1875 Z M 3.390625 -1.328125 C 3.390625 -1.453125 3.363281 -1.566406 3.3125 -1.671875 C 3.257812 -1.773438 3.1875 -1.859375 3.09375 -1.921875 C 3 -1.992188 2.890625 -2.03125 2.765625 -2.03125 L 1.25 -2.03125 L 1.25 -0.625 L 2.71875 -0.625 C 2.84375 -0.625 2.957031 -0.65625 3.0625 -0.71875 C 3.164062 -0.78125 3.242188 -0.863281 3.296875 -0.96875 C 3.359375 -1.082031 3.390625 -1.203125 3.390625 -1.328125 Z M 1.25 -3.96875 L 1.25 -2.625 L 2.578125 -2.625 C 2.703125 -2.625 2.8125 -2.648438 2.90625 -2.703125 C 3 -2.765625 3.070312 -2.84375 3.125 -2.9375 C 3.1875 -3.039062 3.21875 -3.160156 3.21875 -3.296875 C 3.21875 -3.429688 3.191406 -3.546875 3.140625 -3.640625 C 3.085938 -3.742188 3.015625 -3.820312 2.921875 -3.875 C 2.835938 -3.9375 2.738281 -3.96875 2.625 -3.96875 Z M 1.25 -3.96875 "/></g></g></g><g fill="#000000" fill-opacity="1"><g transform="translate(113.526336, 49.660179)"><g><path d="M 2.4375 0.03125 C 2.101562 0.03125 1.800781 -0.03125 1.53125 -0.15625 C 1.257812 -0.289062 1.023438 -0.46875 0.828125 -0.6875 C 0.640625 -0.914062 0.492188 -1.164062 0.390625 -1.4375 C 0.285156 -1.71875 0.234375 -2.003906 0.234375 -2.296875 C 0.234375 -2.609375 0.285156 -2.898438 0.390625 -3.171875 C 0.503906 -3.453125 0.660156 -3.703125 0.859375 -3.921875 C 1.054688 -4.140625 1.289062 -4.3125 1.5625 -4.4375 C 1.832031 -4.570312 2.125 -4.640625 2.4375 -4.640625 C 2.769531 -4.640625 3.070312 -4.570312 3.34375 -4.4375 C 3.613281 -4.300781 3.84375 -4.117188 4.03125 -3.890625 C 4.226562 -3.671875 4.378906 -3.421875 4.484375 -3.140625 C 4.585938 -2.867188 4.640625 -2.585938 4.640625 -2.296875 C 4.640625 -1.984375 4.582031 -1.6875 4.46875 -1.40625 C 4.363281 -1.132812 4.210938 -0.890625 4.015625 -0.671875 C 3.816406 -0.453125 3.582031 -0.28125 3.3125 -0.15625 C 3.039062 -0.03125 2.75 0.03125 2.4375 0.03125 Z M 0.96875 -2.296875 C 0.96875 -2.085938 1 -1.878906 1.0625 -1.671875 C 1.132812 -1.472656 1.234375 -1.289062 1.359375 -1.125 C 1.492188 -0.96875 1.648438 -0.84375 1.828125 -0.75 C 2.003906 -0.664062 2.207031 -0.625 2.4375 -0.625 C 2.664062 -0.625 2.867188 -0.671875 3.046875 -0.765625 C 3.234375 -0.859375 3.390625 -0.984375 3.515625 -1.140625 C 3.640625 -1.304688 3.734375 -1.488281 3.796875 -1.6875 C 3.859375 -1.894531 3.890625 -2.097656 3.890625 -2.296875 C 3.890625 -2.515625 3.859375 -2.722656 3.796875 -2.921875 C 3.734375 -3.128906 3.632812 -3.3125 3.5 -3.46875 C 3.375 -3.625 3.21875 -3.742188 3.03125 -3.828125 C 2.851562 -3.921875 2.65625 -3.96875 2.4375 -3.96875 C 2.207031 -3.96875 2 -3.921875 1.8125 -3.828125 C 1.632812 -3.734375 1.484375 -3.601562 1.359375 -3.4375 C 1.234375 -3.28125 1.132812 -3.101562 1.0625 -2.90625 C 1 -2.707031 0.96875 -2.503906 0.96875 -2.296875 Z M 0.96875 -2.296875 "/></g></g></g><g fill="#000000" fill-opacity="1"><g transform="translate(119.940316, 49.660179)"><g><path d="M 1.84375 -4.609375 L 2.53125 -4.609375 L 4.328125 0 L 3.5625 0 L 3.078125 -1.25 L 1.296875 -1.25 L 0.8125 0 L 0.046875 0 Z M 2.9375 -1.796875 L 2.1875 -3.8125 L 1.421875 -1.796875 Z M 2.9375 -1.796875 "/></g></g></g><g fill="#000000" fill-opacity="1"><g transform="translate(125.854924, 49.660179)"><g><path d="M 0.515625 0 L 0.515625 -4.609375 L 2.515625 -4.609375 C 2.722656 -4.609375 2.914062 -4.5625 3.09375 -4.46875 C 3.269531 -4.382812 3.421875 -4.269531 3.546875 -4.125 C 3.671875 -3.988281 3.769531 -3.832031 3.84375 -3.65625 C 3.914062 -3.476562 3.953125 -3.296875 3.953125 -3.109375 C 3.953125 -2.898438 3.914062 -2.703125 3.84375 -2.515625 C 3.769531 -2.335938 3.660156 -2.179688 3.515625 -2.046875 C 3.378906 -1.910156 3.222656 -1.8125 3.046875 -1.75 L 4.125 0 L 3.3125 0 L 2.3125 -1.609375 L 1.25 -1.609375 L 1.25 0 Z M 1.25 -2.25 L 2.515625 -2.25 C 2.648438 -2.25 2.769531 -2.285156 2.875 -2.359375 C 2.976562 -2.441406 3.054688 -2.546875 3.109375 -2.671875 C 3.171875 -2.804688 3.203125 -2.953125 3.203125 -3.109375 C 3.203125 -3.265625 3.164062 -3.40625 3.09375 -3.53125 C 3.03125 -3.664062 2.941406 -3.769531 2.828125 -3.84375 C 2.722656 -3.925781 2.609375 -3.96875 2.484375 -3.96875 L 1.25 -3.96875 Z M 1.25 -2.25 "/></g></g></g><g fill="#000000" fill-opacity="1"><g transform="translate(131.678735, 49.660179)"><g><path d="M 0.515625 0 L 0.515625 -4.609375 L 2.15625 -4.609375 C 2.65625 -4.609375 3.066406 -4.503906 3.390625 -4.296875 C 3.722656 -4.085938 3.972656 -3.804688 4.140625 -3.453125 C 4.304688 -3.109375 4.390625 -2.726562 4.390625 -2.3125 C 4.390625 -1.84375 4.296875 -1.4375 4.109375 -1.09375 C 3.929688 -0.75 3.671875 -0.476562 3.328125 -0.28125 C 2.992188 -0.09375 2.601562 0 2.15625 0 Z M 3.65625 -2.3125 C 3.65625 -2.632812 3.59375 -2.921875 3.46875 -3.171875 C 3.351562 -3.421875 3.179688 -3.613281 2.953125 -3.75 C 2.734375 -3.894531 2.46875 -3.96875 2.15625 -3.96875 L 1.25 -3.96875 L 1.25 -0.640625 L 2.15625 -0.640625 C 2.476562 -0.640625 2.75 -0.710938 2.96875 -0.859375 C 3.195312 -1.003906 3.367188 -1.203125 3.484375 -1.453125 C 3.597656 -1.703125 3.65625 -1.988281 3.65625 -2.3125 Z M 3.65625 -2.3125 "/></g></g></g></svg>